<svg width="77" height="77" viewBox="0 0 77 77" fill="none" xmlns="http://www.w3.org/2000/svg">
<path d="M22.6446 3.23912C23.4261 2.93484 24.2059 2.63056 24.9874 2.32628C25.3166 2.1916 25.694 2.18329 25.9834 1.94552C26.4489 1.91226 26.8679 1.71772 27.2936 1.55145C28.2447 1.30537 29.1957 1.06095 30.1452 0.814863C30.3015 0.783271 30.4577 0.753342 30.6157 0.72175C30.6689 0.713436 30.7238 0.705123 30.777 0.696809C30.8901 0.661892 31.0031 0.625312 31.1162 0.590394C31.2808 0.577093 31.4454 0.563791 31.6117 0.550489C31.7962 0.577093 31.9625 0.532199 32.1122 0.425785C32.2219 0.414145 32.3316 0.402506 32.4397 0.390867C33.2694 0.28279 34.0975 0.176376 34.9272 0.0682983C35.2597 0.0633101 35.5939 0.0583219 35.9265 0.0533337C37.4196 -0.0131754 38.9111 -0.0165008 40.4042 0.0533337C40.8465 0.0666355 41.2887 0.0799373 41.7294 0.0932392C42.7819 0.247873 43.8344 0.402506 44.8869 0.555477C44.9966 0.567116 45.1064 0.578755 45.2161 0.590394C45.3674 0.695146 45.532 0.748354 45.7166 0.718424C45.8263 0.731726 45.9361 0.743365 46.0458 0.756667C46.1589 0.791584 46.2719 0.826502 46.3833 0.863082C46.4365 0.871395 46.4898 0.879709 46.5446 0.888023C46.6544 0.90465 46.7624 0.919614 46.8722 0.936242C47.8682 1.22057 48.8625 1.50323 49.8584 1.78756C49.9748 1.98709 50.1877 1.89065 50.3489 1.94884C51.019 2.2049 51.6891 2.46096 52.3575 2.71702C53.1772 3.08282 53.997 3.44862 54.8167 3.81608C55.2141 4.01894 55.6098 4.22013 56.0072 4.42298C56.2915 4.64911 56.5875 4.85695 56.9583 4.91681C57.9127 5.5237 58.8671 6.1306 59.8198 6.7375C60.7027 7.42919 61.5857 8.12088 62.4686 8.81092C62.6348 8.94726 62.8011 9.0836 62.9674 9.22161C63.5793 9.78195 64.1928 10.3423 64.8047 10.9026C65.0258 11.2219 65.2969 11.4929 65.6178 11.7157C66.1515 12.3608 66.657 13.0309 67.2871 13.5879C67.3919 13.8407 67.5415 14.0585 67.7793 14.2048C68.4045 15.0611 69.0297 15.9157 69.6565 16.7721C70.1953 17.6317 70.734 18.493 71.2727 19.3526C71.5005 19.7932 71.7283 20.2339 71.9577 20.6728C72.1523 21.0735 72.3485 21.4726 72.543 21.8733C72.8722 22.6415 73.1998 23.408 73.529 24.1762C74.1891 25.9121 74.7312 27.6845 75.2167 29.4769C75.3015 29.9192 75.3846 30.3632 75.4694 30.8055C75.4994 30.9235 75.5276 31.0432 75.5575 31.1613C75.5825 31.3193 75.6058 31.4772 75.6307 31.6352C75.7737 32.6943 75.9167 33.7518 76.0597 34.811C76.0846 35.2466 76.1112 35.6839 76.1362 36.1195C76.1362 37.6127 76.1362 39.1041 76.1362 40.5973C76.1295 40.9315 76.1245 41.264 76.1179 41.5982C75.8652 42.408 75.9167 43.2576 75.7953 44.0857C75.7787 44.2486 75.7621 44.4116 75.7471 44.5745C75.6207 44.6593 75.6157 44.784 75.6357 44.9154C75.6091 45.1299 75.5825 45.3427 75.5559 45.5572C75.5276 45.6752 75.4977 45.7933 75.4694 45.9113C75.4511 46.0743 75.4328 46.2356 75.4162 46.3985C75.1552 47.3978 74.8958 48.3988 74.6347 49.3981C74.6015 49.4978 74.5682 49.5959 74.535 49.6957C74.3404 50.3176 74.1459 50.9378 73.9514 51.5596L73.9331 51.6195C73.8865 51.7093 73.8416 51.7991 73.7951 51.8888C73.6205 52.3527 73.4459 52.8166 73.2696 53.2805C73.2231 53.3703 73.1765 53.4601 73.13 53.5499C73.0119 53.6946 72.9121 53.8475 72.9421 54.0487C72.0525 55.7081 71.163 57.3692 70.2734 59.0286C70.0489 59.2514 69.8827 59.5124 69.7779 59.8101C69.3323 60.4353 68.8884 61.0588 68.4427 61.684C67.9971 62.1179 67.6064 62.5968 67.2871 63.1322C67.0693 63.37 66.8532 63.6061 66.6354 63.8439C66.0251 64.5006 65.4149 65.1591 64.803 65.8158C64.5669 66.0403 64.3292 66.2648 64.093 66.4892C63.4961 67.0163 62.8992 67.5418 62.3023 68.0688C61.9132 68.3764 61.5258 68.6824 61.1367 68.99C60.6579 69.2627 60.2189 69.5886 59.8248 69.9743C59.1547 70.4083 58.4847 70.8439 57.8129 71.2779C57.5951 71.2812 57.4671 71.4375 57.3191 71.5606C56.4827 72.0078 55.6481 72.4551 54.8117 72.904C54.2697 73.1568 53.7276 73.4095 53.1856 73.6639C52.848 73.8119 52.5088 73.9599 52.1713 74.1079C52.1131 74.1012 52.0632 74.1178 52.0216 74.1594C51.9651 74.1378 51.9136 74.1478 51.867 74.1843C51.1953 74.4321 50.5235 74.6798 49.8535 74.9293C48.8575 75.2136 47.8615 75.4979 46.8639 75.7822C46.7558 75.7972 46.6477 75.8138 46.5396 75.8288C46.4864 75.8354 46.4349 75.8404 46.3817 75.8471C46.2686 75.8886 46.1572 75.9285 46.0442 75.9701C45.9344 75.9784 45.823 75.9851 45.7133 75.9934C45.5254 75.9618 45.3574 76.0067 45.2061 76.1198C45.0981 76.1314 44.99 76.1447 44.8819 76.1563C44.0505 76.2694 43.2192 76.3825 42.3878 76.4955C39.9037 76.8164 37.4113 76.6751 34.9205 76.6502C34.7576 76.6352 34.5946 76.6202 34.43 76.6036C34.2621 76.5687 34.0941 76.5338 33.9245 76.4989C33.602 76.4656 33.2794 76.4324 32.9568 76.4008C32.6193 76.3542 32.2818 76.3076 31.9442 76.2611C30.2083 75.9086 28.4808 75.5179 26.7848 75.0041C26.1862 74.8029 25.5893 74.6017 24.9907 74.4005C23.2681 73.7637 21.627 72.944 19.9759 72.1458C19.6933 71.9181 19.4073 71.6936 19.0315 71.6387C18.5693 71.228 18.0172 70.9537 17.4852 70.6494C17.4286 70.5064 17.3023 70.4931 17.1742 70.4848C17.0628 70.2786 16.8533 70.2187 16.6588 70.1373C16.1749 69.6501 15.593 69.2926 15.0243 68.9168C14.9395 68.847 14.8564 68.7755 14.7716 68.7057C14.1248 68.1802 13.4763 67.6565 12.8295 67.1311C12.5967 66.8201 12.3241 66.5524 11.9932 66.3463C11.3896 65.7327 10.786 65.1175 10.1825 64.504C10.0012 64.3028 9.81832 64.1016 9.63708 63.9004C9.06012 63.2153 8.48315 62.5286 7.90785 61.8436C7.73659 61.6175 7.56366 61.3913 7.3924 61.1652L7.39407 61.1669C7.32756 60.9607 7.23112 60.7761 7.02993 60.6697C6.75225 60.0545 6.33325 59.5357 5.91424 59.017C5.68977 58.6262 5.4653 58.2371 5.24084 57.8464C5.11447 57.6336 4.9881 57.4191 4.86007 57.2062C4.81019 57.1331 4.76197 57.0583 4.71209 56.9851C4.74368 56.7939 4.609 56.6758 4.51422 56.5412C3.92229 55.319 3.33036 54.0969 2.73677 52.8748C2.5256 52.1067 2.26289 51.3568 1.90374 50.6451C1.88545 50.562 1.86883 50.4789 1.85054 50.3957C1.87215 50.2743 1.82393 50.1862 1.71918 50.1264C1.70754 50.0499 1.6959 49.975 1.68426 49.8986C1.71087 49.7622 1.69091 49.6408 1.56455 49.556C1.52963 49.3881 1.49305 49.2185 1.45813 49.0506C1.232 48.1593 1.00587 47.2698 0.77974 46.3786C0.748148 46.2223 0.716556 46.0676 0.684964 45.9113C0.655035 45.7933 0.625106 45.6736 0.593514 45.5555C0.566911 45.3427 0.54197 45.1282 0.515366 44.9154C0.4871 44.7973 0.457171 44.6776 0.428904 44.5595C0.403963 44.4016 0.379023 44.2436 0.355744 44.0857C0.382348 43.8479 0.41394 43.6101 0.262632 43.3973C0.237691 43.0731 0.211087 42.7488 0.186146 42.4263C0.156217 42.2517 0.126288 42.0771 0.096359 41.9042C0.0747436 41.8027 0.0531281 41.6997 0.0315127 41.5982C0.00823448 39.1075 -0.124784 36.6134 0.186146 34.1309C0.211087 33.8616 0.237691 33.5922 0.262632 33.3228C0.349093 32.7625 0.433893 32.2005 0.520354 31.6402C0.545295 31.4822 0.568573 31.3226 0.593514 31.1646C0.623443 31.0466 0.653372 30.9285 0.683302 30.8105C0.711568 30.6325 0.831284 30.4663 0.744822 30.2751C0.861213 30.2069 0.872852 30.1005 0.8529 29.9824C0.867864 29.8743 0.884491 29.7663 0.899456 29.6582C1.22535 28.6739 1.50968 27.6779 1.70255 26.657L1.72251 26.5954C1.82559 26.5356 1.87215 26.4491 1.85054 26.3294C1.86384 26.2529 1.87548 26.1748 1.88878 26.0983C1.93533 26.0085 1.98023 25.9187 2.02678 25.8306C2.24128 25.3467 2.45411 24.8629 2.54556 24.3358C2.74342 24.2277 2.69021 24.0132 2.74841 23.847C3.09093 23.2484 3.38523 22.6282 3.57977 21.9631C4.06529 21.0369 4.5508 20.1125 5.03798 19.1863C5.17931 19.1315 5.21091 19.0034 5.2425 18.8754C5.70141 18.1538 6.16032 17.4338 6.61924 16.7122C6.92185 16.2716 7.22613 15.8309 7.52875 15.3887C7.83469 14.9996 8.14063 14.6105 8.44657 14.2214C8.97033 13.6145 9.49575 13.006 10.0195 12.3991C10.2822 12.2095 10.515 11.99 10.6813 11.709C11.2898 11.1088 11.9001 10.5069 12.5086 9.90665C12.7613 9.68385 13.0141 9.45938 13.2668 9.23657C13.7922 8.80593 14.316 8.37528 14.8414 7.94464C15.3269 7.66197 15.7825 7.34107 16.1783 6.93869C16.6139 6.64937 17.0495 6.36172 17.4835 6.0724C19.1612 5.02821 20.9104 4.1453 22.6446 3.23912ZM14.8497 9.88836C15.0077 9.8734 15.174 9.86675 15.2189 9.67055C15.2272 9.6323 15.2039 9.55083 15.179 9.54418C14.9628 9.48598 14.858 9.65724 14.7267 9.77363C14.6685 9.86176 14.4374 9.9 14.5854 10.0413C14.6934 10.1444 14.7999 10.0114 14.8497 9.88836ZM11.6822 12.6967C11.4611 12.8979 11.2217 13.0808 11.0238 13.3019C8.97865 15.5749 7.19953 18.0391 5.74963 20.7343C3.36195 25.1755 1.93866 29.9109 1.44483 34.9839C1.83225 34.8343 1.81562 34.505 1.91206 34.244C3.3154 30.4031 5.10449 26.7883 8.06248 23.8736C8.56629 23.3764 8.95703 22.9042 8.90216 22.121C8.86392 21.5856 9.01024 21.032 9.10667 20.4916C9.59053 17.783 10.5266 15.229 11.767 12.7815C11.7803 12.715 11.8219 12.5969 11.8036 12.5886C11.7022 12.5354 11.6955 12.6269 11.6822 12.6967ZM53.0525 4.53605C52.9877 4.38307 52.8763 4.3731 52.7433 4.43961C52.7998 4.51277 52.8563 4.58593 52.9129 4.65909C54.7419 6.25697 56.4977 7.92136 57.8894 9.93492C58.3234 10.5634 58.7773 11.172 59.3526 11.7074C62.9624 15.0744 66.5406 18.473 69.3223 22.5999C69.4171 22.7412 69.4271 22.9823 69.6931 22.9907C70.4347 23.0123 71.0798 23.3797 71.7383 23.6358C71.843 23.4728 71.7582 23.388 71.7166 23.2916C69.2924 17.8113 65.7425 13.1839 61.0968 9.41449C58.6426 7.42753 55.9956 5.72822 53.0525 4.53605ZM20.8006 25.8372C20.784 26.9213 20.9104 27.9572 21.0999 28.9898C21.8681 33.1898 23.6855 36.9625 25.7871 40.6255C26.0299 41.0479 26.3891 41.1643 26.7931 41.2324C28.1998 41.4719 29.6131 41.6814 31.0181 41.9258C34.4234 42.5177 37.827 43.1213 41.2306 43.7249C41.6679 43.803 42.0104 43.7016 42.3512 43.3873C46.3933 39.6645 50.1278 35.6606 53.4632 31.2877C53.7077 30.9668 53.7592 30.6941 53.6179 30.3066C52.0449 26.0301 50.4853 21.7469 48.9373 17.4621C48.7976 17.073 48.5914 16.8253 48.2123 16.6374C47.2313 16.1502 46.2187 15.7412 45.1912 15.3704C40.9629 13.844 36.5417 13.2487 32.1122 12.7067C31.8628 12.6768 31.6566 12.7117 31.4437 12.9145C28.0451 16.1153 24.7712 19.4341 21.6819 22.9374C20.9021 23.8253 20.5812 24.7398 20.8006 25.8372ZM56.0804 62.1728C57.4904 62.0448 59.1498 62.2559 60.4151 60.9723C60.7826 60.5999 61.1933 60.2673 61.569 59.9015C64.3242 57.2129 66.4475 54.0171 68.737 50.9544C69.0363 50.5537 69.1627 50.1596 69.1378 49.6674C68.9948 46.9123 68.8169 44.1555 68.4427 41.4236C68.1418 39.2288 67.6879 37.0557 66.8399 34.9872C66.6736 34.5799 66.5156 34.3321 65.9935 34.2589C64.8845 34.1043 63.7871 33.8383 62.7013 33.5556C60.1092 32.8822 57.5269 32.1772 54.9414 31.4772C54.4592 31.3459 54.1632 31.419 53.8174 31.8829C50.7214 36.0364 47.1765 39.7908 43.3721 43.2942C42.7187 43.8961 42.4161 44.3168 42.6971 45.3011C43.8876 49.4679 44.2467 53.776 44.5577 58.0808C44.6242 59.0053 44.9201 59.5773 45.8563 59.9813C49.077 61.3714 52.4224 62.098 56.0804 62.1728ZM15.8307 53.8791C16.4626 53.8791 16.968 53.8243 17.4569 53.8924C18.2467 54.0022 18.5676 53.648 18.8702 52.9463C20.4215 49.3449 22.1242 45.8049 24.4802 42.6541C25.2867 41.5749 25.1969 40.8467 24.5734 39.7493C22.0859 35.3796 20.237 30.7839 20.0807 25.6527C20.0408 24.3358 19.9743 24.3923 18.6108 24.3125C15.7243 24.1429 12.8162 24.2277 9.95799 23.6724C9.46915 23.5776 9.09005 23.694 8.71095 24.0831C6.38147 26.4757 4.66387 29.2541 3.38357 32.3202C2.39757 34.6813 1.5263 36.9975 2.18641 39.6961C3.00613 43.0398 3.7211 46.3935 5.37385 49.4579C5.9292 50.4888 6.62589 51.3318 7.68504 51.9404C10.2656 53.4202 13.029 53.9806 15.8307 53.8791ZM38.2676 75.3798C39.9087 75.3 41.6928 75.2485 43.4769 74.9924C48.5199 74.2691 53.1689 72.52 57.4953 69.8629C57.8878 69.6218 58.1089 69.3325 58.2353 68.862C58.7274 67.023 58.7574 65.1707 58.5911 63.2902C58.5395 62.7049 58.3134 62.6334 57.8246 62.7016C55.7262 62.9909 53.6428 62.7647 51.5744 62.4189C49.2416 62.0298 47.0168 61.2916 44.9052 60.2191C44.6475 60.0894 44.413 59.9697 44.0921 60.2341C42.3612 61.6624 40.3343 62.5636 38.2576 63.3417C35.8001 64.2629 33.321 65.1241 30.8502 66.0087C30.4444 66.1534 30.2067 66.3562 30.0903 66.8434C29.5665 69.0432 29.8758 71.2264 30.1119 73.4145C30.1368 73.6406 30.2998 73.7404 30.4361 73.8651C31.0513 74.4354 31.768 74.8178 32.5977 74.9608C34.425 75.2751 36.2706 75.3383 38.2676 75.3798ZM57.7714 10.9608C56.6075 9.14346 55.2141 7.56553 53.6012 6.17716C52.0532 4.84531 50.6649 3.34221 48.5382 2.79351C43.3406 1.45169 38.1445 0.680182 32.8288 2.0669C30.7005 2.62225 28.6404 3.32891 26.7914 4.54768C26.6351 4.65077 26.1829 4.70731 26.5886 5.11135C28.5356 7.04177 29.9473 9.37458 31.4038 11.6675C31.5768 11.9402 31.758 12.0133 32.054 12.0482C33.7184 12.2494 35.3844 12.449 37.0421 12.7034C40.9429 13.3053 44.7539 14.243 48.3271 15.9723C48.8142 16.2084 49.1418 16.1984 49.5774 15.8792C52.143 14.0036 54.7452 12.1829 57.7714 10.9608ZM6.50617 51.8789C6.35154 53.3188 6.09049 54.6157 6.29168 55.9476C6.38978 56.5944 6.43467 57.2345 6.80879 57.8248C8.124 59.8965 9.58388 61.8569 11.2566 63.651C15.3203 68.0106 20.1904 71.1582 25.7589 73.2549C26.7632 73.6323 27.7791 73.7254 28.8299 73.6323C29.2988 73.5908 29.4934 73.4095 29.4119 72.8907C29.086 70.8123 28.9746 68.7256 29.4684 66.6588C29.5665 66.2465 29.4568 66.1168 29.1492 65.8973C27.1223 64.4557 25.2601 62.8362 23.6123 60.9524C21.9612 59.0635 20.5013 57.03 18.9733 55.0497C18.5194 54.4594 18.0754 54.3929 17.4319 54.4411C13.5994 54.7304 9.93804 54.2034 6.50617 51.8789ZM72.538 51.405C73.8782 47.6988 74.6464 43.9626 74.8027 40.0918C74.9955 35.3181 74.382 30.6808 72.839 26.1432C72.425 24.9244 71.6385 24.3142 70.5843 23.8752C69.6648 23.4911 69.6515 23.536 69.462 24.5287C68.9765 27.0859 68.5525 29.6682 67.7228 32.1323C67.2955 33.401 67.3187 34.4468 67.7693 35.6939C69.0912 39.3452 69.3805 43.1944 69.6316 47.037C69.6948 48.0014 69.5268 49.0672 69.8943 49.8936C70.1371 50.4373 71.153 50.6335 71.8197 50.9893C72.0359 51.1057 72.2437 51.2354 72.538 51.405ZM15.2953 9.52589C18.0472 8.03442 20.8139 6.58785 23.7437 5.52371C25.4879 4.89021 26.7183 3.48853 28.3843 2.77522C23.4926 4.01894 19.1213 6.26196 15.2953 9.52589Z" fill="#E4168F"/>
</svg>
